<?xml version="1.0" encoding="iso-8859-1"?>
<!-- Generator: Adobe Illustrator 17.1.0, SVG Export Plug-In . SVG Version: 6.00 Build 0)  -->
<!DOCTYPE svg PUBLIC "-//W3C//DTD SVG 1.1//EN" "http://www.w3.org/Graphics/SVG/1.1/DTD/svg11.dtd">
<svg version="1.1" id="Capa_1" xmlns="http://www.w3.org/2000/svg" xmlns:xlink="http://www.w3.org/1999/xlink" x="0px" y="0px"
	 viewBox="0 0 424.583 424.583" style="enable-background:new 0 0 424.583 424.583;" xml:space="preserve">
<g>
	<path d="M423.326,358.287l-61.957-159.85c-2.846-7.339-9.904-16.92-16.069-21.812l-24.989-19.828
		c-4.292-3.405-10.309-5.358-16.508-5.358c-4.268,0-8.302,0.929-11.664,2.686l-37.228,19.454c-3.98,2.08-15.279,9.637-17.6,6.387
		l-17.689-38.033c-2.847-6.121-8.236-9.774-14.417-9.774c-4.05,0-8.081,1.66-11.352,4.673l-33.351,30.735
		c-0.628,0.579-1.074,0.705-1.184,0.708c-0.08-0.027-0.458-0.293-0.837-1.105l-24.852-53.252c-3.686-7.897-9.379-8.75-11.655-8.75
		c-2.374,0-8.27,0.904-11.724,9.28L1.402,378.262c-2.17,5.261-1.808,10.68,0.994,14.865c2.801,4.186,7.672,6.587,13.363,6.587h300
		c5.759,0,10.611-2.429,13.312-6.663c2.538-3.978,2.829-9.006,0.842-13.931c-0.128-0.317-0.267-0.634-0.413-0.95
		c0,0-1.452-1.982,1.948-1.79c19.927,1.128,79.78,2.962,79.78,2.962c-2.574-0.097-2.323-0.092-2.075-0.092
		c5.487,0,10.216-2.31,12.975-6.338C424.915,368.842,425.351,363.512,423.326,358.287z M251.212,197.951
		c1.183-3.169,6.091-8.698,10.646-11.078l37.228-19.454c1.209-0.632,2.885-0.98,4.717-0.98c2.792,0,5.544,0.808,7.184,2.109
		l24.99,19.828c4.157,3.298,9.487,10.533,11.406,15.482l7.18,18.523c0.735,1.473-0.227,3.107-0.709,3.785
		c-3.38,4.746-6.91,11.693-11.396,20.753c-3.98,8.041-12.628,25.417-15.109,25.143c-1.884-0.208-4.994-8.756-6.828-13.154
		c-5.145-12.339-11.55-27.694-26.135-27.694c-12.241,0-19.554,4.365-25.429,7.873c-1.162,0.693-3.159,1.768-4.488-0.734
		l-11.983-25.764C250.379,208.064,250.072,201.004,251.212,197.951z M120.487,129.381c1.992-4.63,3.468-0.727,3.468-0.727
		l20.934,44.858c2.852,6.111,8.242,9.76,14.421,9.76c4.052,0,8.086-1.66,11.357-4.675l33.352-30.735
		c0.626-0.577,1.068-0.704,1.171-0.707c0.08,0.028,0.456,0.298,0.83,1.104l34.333,73.816c0.862,1.281-0.089,2.557-0.488,3.127
		c-3.764,5.372-7.564,14.065-12.721,26.232c-4.128,9.738-12.179,29.005-14.872,29.313c-1.563,0.179-4.886-10.663-6.779-16.2
		c-5.343-15.623-11.398-33.331-26.274-33.331c-12.994,0-22.026,8.639-29.283,15.581c-4.007,3.832-8.233,8.972-11.038,8.162
		c-2.742-0.792-5.461-10.536-7.645-16.378c-5.615-15.014-12.604-33.699-28.036-33.699c-4.32,0-8.248,0.625-11.799,1.669
		c-1.184,0.349-3.868,1.806-2.193-1.828C89.222,204.721,112.265,148.487,120.487,129.381z M16.756,384.66
		c-1.459,0-1.373-0.954-1.262-1.227l63.177-153.121c0.98-2.332,1.869-3.159,2.472-3.774c4.512-4.605,11.801-9.657,22.071-9.657
		c7.108,0,12.708,14.972,16.797,25.902c4.857,12.987,9.053,24.204,18.452,24.204c7.722,0,13.571-5.596,19.765-11.52
		c6.298-6.024,12.811-12.253,20.989-12.253c6.297,0,11.281,14.573,14.92,25.214c4.549,13.302,8.477,24.789,18.08,24.789
		c9.77,0,15.93-13.406,25.974-37.101c2.564-6.051,4.993-10.393,7.188-16.26c1.669-4.46,2.956-0.62,2.956-0.62l22.679,48.759
		l33.773,72.612c0.001,0.002,0.002,0.003,0.003,0.005l9.982,21.462c0,0,1.692,2.635-1.745,2.635
		C312.955,384.71,16.936,384.691,16.756,384.66z M328.919,361.276c-3.806-0.142-8.921-3.538-10.528-6.99l-24.088-51.79
		l-22.414-48.188c-1.257-2.285,0.318-3.216,1.025-3.623c0.74-0.427,1.47-0.86,2.193-1.293c5.321-3.177,10.347-6.177,19.278-6.177
		c6.588,0,11.089,10.792,15.06,20.313c4.436,10.64,8.628,20.689,17.94,20.689c9.515,0,16.013-12.149,25.826-31.973
		c2.143-4.328,3.412-6.7,5.721-11.246c1.449-2.852,2.583-0.677,2.583-0.677l45.709,117.931c0,0,1.49,5.436-4.003,5.456
		C403.004,363.71,328.919,361.276,328.919,361.276z"/>
	<path d="M114.499,78.877c6.868,0.104,13.972,0.212,17.509,3.536c3.996,3.755,7.003,5.357,10.053,5.357
		c3.131,0,5.838-1.839,7.063-4.8c4.212-10.167-11.824-43.306-18.36-49.841c-5.326-5.326-12.397-8.259-19.912-8.259
		c-7.464,0-14.475,2.9-19.739,8.165c-5.289,5.288-8.189,12.329-8.167,19.825c0.022,7.482,2.956,14.524,8.26,19.828
		C97.129,78.612,105.959,78.747,114.499,78.877z M99.597,41.519c2.998-2.999,6.995-4.65,11.254-4.65
		c4.31,0,8.367,1.685,11.428,4.745c3.896,3.896,10.297,17.306,13.443,27.323c0.492,1.731-0.766,1.126-1.476,0.813
		c-6.049-2.666-13.124-2.773-19.566-2.871c-6.147-0.093-12.506-0.19-14.991-2.675c-3.046-3.047-4.731-7.088-4.744-11.378
		C94.932,48.547,96.585,44.532,99.597,41.519z"/>
	<path d="M173.948,123.265h0.003c3.326,0,6.157-2.259,8.253-4.228c1.954-1.836,6.551-1.906,10.995-1.974
		c6.022-0.092,12.849-0.195,17.5-4.848c4.041-4.04,6.275-9.405,6.292-15.106c0.018-5.715-2.193-11.082-6.227-15.114
		c-4.015-4.015-9.36-6.227-15.05-6.227c-5.727,0-11.113,2.235-15.17,6.291c-4.265,4.264-8.794,15.063-9.658,17.184
		c-5.771,14.162-4.208,17.938-3.54,19.551C168.487,121.551,171.017,123.264,173.948,123.265z M189.03,90.546
		c1.79-1.791,4.164-2.777,6.685-2.777c2.484,0,4.816,0.963,6.565,2.712c1.756,1.755,2.719,4.097,2.711,6.592
		c-0.007,2.51-0.993,4.874-2.777,6.658c-1.212,1.212-5.64,1.28-9.197,1.334c-3.166,0.048-6.733,0.102-10.179,0.845
		c-0.625,0.135-1.581,0.486-1.245-1.116C183.961,98.498,186.956,92.619,189.03,90.546z"/>
	<path d="M171.724,61.722c0.841,0.406,1.73,0.598,2.605,0.598c2.23,0,4.372-1.25,5.407-3.393
		c0.072-0.149,7.527-15.043,18.819-18.817c4.484-1.499,8.997-1.028,13.791,1.445c2.946,1.519,6.564,0.363,8.083-2.583
		c1.519-2.945,0.362-6.564-2.583-8.082c-7.715-3.978-15.484-4.704-23.094-2.16c-16.224,5.421-25.439,24.185-25.823,24.981
		C167.489,56.695,168.74,60.282,171.724,61.722z"/>
	<path d="M44.866,95.675c0.161-0.04,16.341-3.903,26.547,2.441c4.004,2.489,6.517,6.252,7.682,11.503
		c0.62,2.798,3.1,4.703,5.852,4.703c0.431,0,0.867-0.047,1.305-0.144c3.235-0.718,5.276-3.922,4.559-7.157
		c-1.878-8.472-6.291-14.908-13.115-19.13c-14.546-9-34.864-4.078-35.721-3.863c-3.211,0.801-5.16,4.048-4.366,7.26
		C38.401,94.5,41.643,96.461,44.866,95.675z"/>
</g>
<g>
</g>
<g>
</g>
<g>
</g>
<g>
</g>
<g>
</g>
<g>
</g>
<g>
</g>
<g>
</g>
<g>
</g>
<g>
</g>
<g>
</g>
<g>
</g>
<g>
</g>
<g>
</g>
<g>
</g>
</svg>
